<?xml version="1.0" standalone="no"?>
<!DOCTYPE svg PUBLIC "-//W3C//DTD SVG 20010904//EN"
 "http://www.w3.org/TR/2001/REC-SVG-20010904/DTD/svg10.dtd">
<svg version="1.0" xmlns="http://www.w3.org/2000/svg"
 width="512.000000pt" height="512.000000pt" viewBox="0 0 512.000000 512.000000"
 preserveAspectRatio="xMidYMid meet">
<metadata>
Created by potrace 1.14, written by Peter Selinger 2001-2017
</metadata>
<g transform="translate(0.000000,512.000000) scale(0.100000,-0.100000)"
fill="#000000" stroke="none">
<path d="M2453 4904 c-5 -15 0 -82 18 -194 6 -41 11 -81 12 -87 1 -18 18 -16
69 6 95 41 338 117 429 135 13 2 58 12 99 21 41 9 91 18 110 21 19 3 37 7 39
9 2 3 -98 36 -119 40 -50 8 -129 29 -126 34 2 3 -15 6 -37 6 -23 0 -67 4 -97
9 -30 5 -131 10 -223 11 -134 2 -170 0 -174 -11z"/>
<path d="M2140 4860 c-36 -9 -97 -27 -136 -39 -72 -23 -72 -23 -78 -65 -6 -47
-1 -403 8 -456 3 -19 8 -57 11 -85 10 -81 61 -282 100 -395 147 -422 468 -843
876 -1148 46 -35 91 -69 99 -75 25 -20 201 -132 270 -172 36 -21 76 -45 90
-54 47 -28 285 -144 365 -178 44 -18 79 -38 77 -44 -1 -6 2 -7 8 -4 6 4 51 -8
100 -26 99 -37 104 -43 134 -163 14 -56 16 -182 3 -234 -21 -82 -101 -175
-201 -231 -91 -51 -259 -104 -373 -117 -27 -3 -55 -7 -63 -9 -15 -4 -88 -10
-250 -21 -121 -7 -142 -10 -250 -29 -8 -1 -35 -6 -60 -10 -54 -9 -46 -7 -190
-40 -334 -75 -696 -138 -920 -160 -36 -4 -81 -8 -100 -10 -32 -3 -67 -6 -270
-20 -136 -10 -282 -25 -290 -30 -3 -2 -26 -6 -50 -10 -132 -19 -267 -97 -317
-183 -83 -140 -57 -313 64 -428 75 -72 219 -143 344 -170 190 -40 282 -49 544
-48 181 0 376 9 415 19 8 2 42 6 75 10 33 3 74 8 90 11 17 2 46 6 65 9 111 13
162 28 185 53 31 33 40 73 25 116 -19 60 -76 80 -175 62 -47 -8 -156 -25 -205
-31 -25 -3 -61 -8 -80 -10 -140 -19 -508 -26 -650 -13 -266 25 -464 99 -509
190 -47 96 18 169 176 197 97 17 116 20 183 26 36 3 81 7 100 10 19 2 80 7
135 10 55 4 111 8 125 10 14 1 64 6 110 9 47 4 96 9 110 11 14 3 50 7 80 10
30 3 89 10 130 16 41 6 91 13 110 14 19 2 42 5 50 8 13 5 61 13 182 32 13 2
73 15 135 29 61 14 122 27 135 30 13 3 73 16 133 30 161 37 276 54 405 61 63
4 131 8 150 10 19 2 57 6 85 9 173 19 339 66 485 138 88 44 118 65 185 133 90
90 124 146 155 255 19 71 29 223 16 261 -3 8 -7 30 -10 49 -11 76 -78 242
-113 282 -14 15 -13 20 4 45 19 26 83 141 83 147 0 2 -46 22 -101 46 -201 86
-616 312 -627 341 -2 5 -8 9 -14 9 -8 0 -82 47 -113 72 -5 5 -54 42 -108 82
-195 147 -397 341 -539 518 -77 96 -148 195 -148 207 0 5 -4 11 -8 13 -14 6
-115 181 -168 294 -74 156 -159 410 -177 529 -3 17 -10 50 -15 75 -6 25 -13
68 -16 95 -8 66 -18 140 -20 141 0 1 -30 -7 -66 -16z"/>
<path d="M1666 4672 c-3 -6 -30 -24 -59 -40 -28 -16 -77 -49 -108 -72 l-57
-42 -12 -81 c-6 -45 -14 -93 -17 -107 -2 -14 -6 -119 -8 -235 -8 -403 53 -685
220 -1030 51 -106 190 -334 215 -355 3 -3 20 -25 38 -50 81 -112 336 -366 473
-472 163 -126 328 -235 494 -328 84 -47 353 -178 431 -210 l82 -33 103 51
c105 52 238 135 318 200 l43 35 -135 57 c-242 103 -563 272 -552 291 3 5 0 6
-7 4 -17 -7 -336 203 -358 234 -3 4 -12 12 -21 17 -48 27 -193 156 -324 289
-152 153 -270 303 -377 475 -134 215 -234 453 -292 692 -31 128 -37 159 -51
268 -3 25 -8 58 -11 74 -3 16 -6 105 -8 198 -3 162 -7 191 -20 170z"/>
<path d="M3537 4554 c-1 -1 -36 -4 -77 -8 -41 -3 -86 -8 -100 -10 -14 -3 -59
-10 -100 -16 -41 -7 -104 -19 -140 -27 -36 -8 -77 -17 -92 -20 -67 -11 -366
-108 -383 -124 -5 -5 -16 -9 -25 -9 -8 0 -23 -6 -32 -13 -15 -12 -13 -22 27
-116 24 -57 46 -105 48 -107 2 -2 47 12 100 31 171 61 378 112 527 130 30 3
66 8 80 10 153 23 490 23 633 -1 24 -4 27 -2 18 13 -10 18 -148 154 -211 208
-73 63 -84 67 -182 63 -49 -2 -90 -4 -91 -4z"/>
<path d="M1113 4177 c-111 -156 -195 -318 -243 -469 -10 -32 -15 -56 -11 -54
3 2 35 24 71 48 36 23 104 65 150 92 l85 49 0 204 c0 111 0 203 0 203 0 0 -23
-33 -52 -73z"/>
<path d="M3410 3975 c-91 -12 -174 -24 -195 -29 -5 -2 -28 -6 -50 -10 -135
-26 -335 -91 -335 -108 0 -12 122 -172 180 -238 l40 -44 48 18 c104 41 278 87
380 101 186 25 478 25 604 -1 13 -2 39 -7 58 -10 19 -3 79 -16 132 -30 53 -13
100 -24 103 -24 16 0 -45 190 -91 281 -21 43 -27 47 -69 54 -26 3 -57 8 -68
11 -12 2 -33 6 -47 9 -14 3 -45 8 -70 10 -25 3 -56 8 -70 11 -53 12 -457 11
-550 -1z"/>
<path d="M1160 3567 c-72 -42 -247 -161 -307 -209 -59 -46 -63 -53 -64 -91 -1
-79 2 -216 6 -239 2 -13 6 -44 10 -70 l6 -46 85 64 c103 78 235 166 327 220
55 31 67 43 64 59 -3 11 -16 58 -30 105 -14 47 -31 114 -38 150 -7 36 -15 68
-18 71 -3 4 -22 -3 -41 -14z"/>
<path d="M3620 3399 c-36 -4 -83 -10 -105 -13 -42 -5 -214 -45 -228 -53 -5 -3
0 -14 10 -25 33 -37 286 -222 413 -303 135 -85 418 -235 540 -285 41 -17 82
-35 91 -39 16 -9 28 27 64 199 29 137 42 382 21 399 -32 27 -275 92 -416 111
-104 15 -302 19 -390 9z"/>
<path d="M1335 2987 c-108 -62 -325 -216 -420 -299 l-39 -35 39 -94 c38 -89
122 -249 132 -249 2 0 48 35 101 78 53 43 107 84 119 92 12 8 62 43 112 78 50
34 93 62 95 62 3 0 25 14 50 31 l46 30 -38 62 c-20 34 -43 71 -50 82 -6 11
-31 57 -54 103 -23 45 -45 82 -48 82 -3 0 -23 -11 -45 -23z"/>
<path d="M1610 2427 c-53 -34 -119 -79 -148 -100 -29 -21 -57 -35 -63 -32 -5
4 -8 2 -7 -3 2 -5 -43 -47 -99 -92 -57 -45 -103 -85 -103 -88 0 -11 201 -204
245 -237 22 -16 42 -32 45 -36 8 -10 150 -101 200 -128 25 -13 52 -29 60 -37
8 -7 17 -12 20 -12 3 1 28 -9 55 -21 150 -67 360 -132 478 -146 31 -4 55 -10
53 -14 -7 -10 424 -11 494 0 36 5 83 12 105 15 22 3 43 8 48 11 4 2 -48 33
-115 67 -68 35 -150 78 -183 98 -141 82 -205 123 -205 130 0 4 -5 8 -11 8 -16
0 -157 101 -292 208 -116 93 -319 287 -427 409 l-55 62 -95 -62z"/>
</g>
</svg>
